<svg width="137" height="137" fill="none" xmlns="http://www.w3.org/2000/svg"><circle cx="68.5" cy="68.5" r="66" stroke="#fff" stroke-width="5"/><g clip-path="url(#clip0)"><path d="M94.365 91.302L79.577 76.515a20.483 20.483 0 004.59-12.93C84.166 52.234 74.931 43 63.582 43S43 52.235 43 63.584s9.234 20.583 20.583 20.583c4.897 0 9.393-1.724 12.93-4.589l14.788 14.788a2.16 2.16 0 001.532.635 2.16 2.16 0 001.532-.635 2.164 2.164 0 000-3.064zM63.583 79.834c-8.961 0-16.25-7.289-16.25-16.25s7.289-16.25 16.25-16.25 16.25 7.289 16.25 16.25-7.289 16.25-16.25 16.25z" fill="#fff"/></g><defs><clipPath id="clip0"><path fill="#fff" transform="translate(43 43)" d="M0 0h52v52H0z"/></clipPath></defs></svg>