<svg width="145" height="22" fill="none" xmlns="http://www.w3.org/2000/svg"><path d="M10.69 0l2.399 7.386h7.766l-6.283 4.565 2.4 7.386-6.283-4.565-6.283 4.565 2.4-7.386L.523 7.386H8.29L10.69 0zm30.672 0l2.4 7.386h7.766l-6.283 4.565 2.4 7.386-6.283-4.565-6.283 4.565 2.4-7.386-6.283-4.565h7.766L41.362 0zM72.5 0l2.296 7.386h7.428l-6.01 4.565 2.296 7.386-6.01-4.565-6.01 4.565 2.296-7.386-6.01-4.565h7.428L72.5 0zm31.138 0l2.4 7.386h7.766l-6.283 4.565 2.4 7.386-6.283-4.565-6.283 4.565 2.4-7.386-6.283-4.565h7.766l2.4-7.386zm30.673 0l2.4 7.386h7.766l-6.283 4.565 2.4 7.386-6.283-4.565-6.283 4.565 2.4-7.386-6.283-4.565h7.766l2.4-7.386z" fill="#fff"/></svg>